# xmcd
#
# Track frame offsets:
#	150
#	13876
#	31986
#	50806
#	65227
#	83348
#	96493
#	114987
#	131182
#	152166
#	166153
#	184371
#	207022
#	231970
#	252436
#	272693
#
# Disc length: 3883 seconds
#
# Revision: 1
# Processed by: cddbd v1.5.1PL2 Copyright (c) Steve Scherf et al.
# Submitted via: audiograbber 1.83.01
#
DISCID=e50f2910
DTITLE=Lars Vegas and The Love Gloves - Get 'Em While They're Hot
DYEAR=2004
DGENRE=Blues
TTITLE0=Statesboro Blues
TTITLE1=Avalon Blues
TTITLE2=Shake It And Break It
TTITLE3=Got The Blues, Can't Be Satisfied
TTITLE4=Big Road Blues
TTITLE5=Salty Dog
TTITLE6=My Black Mama
TTITLE7=Fishin' Blues
TTITLE8=Baby, What You Want Me To Do
TTITLE9=Just Because
TTITLE10=Poor Me
TTITLE11=Bo Weavil
TTITLE12=Milwaukee Blues
TTITLE13=Rollin' And Tumblin'
TTITLE14=Some Of These Days
TTITLE15=They're Red Hot
EXTD=
EXTT0=
EXTT1=
EXTT2=
EXTT3=
EXTT4=
EXTT5=
EXTT6=
EXTT7=
EXTT8=
EXTT9=
EXTT10=
EXTT11=
EXTT12=
EXTT13=
EXTT14=
EXTT15=
PLAYORDER=
